<svg width="134" height="45" viewBox="0 0 134 45" fill="none" xmlns="http://www.w3.org/2000/svg">
<path d="M8.93506 18.3368C8.93506 17.6125 8.74788 17.0673 8.37354 16.701C8.00732 16.3267 7.33594 15.9401 6.35938 15.5414C4.57715 14.8659 3.29541 14.0765 2.51416 13.1732C1.73291 12.2618 1.34229 11.1875 1.34229 9.95056C1.34229 8.45317 1.87126 7.25281 2.9292 6.34949C3.99528 5.43803 5.34619 4.9823 6.98193 4.9823C8.07243 4.9823 9.04492 5.21423 9.89941 5.6781C10.7539 6.13383 11.409 6.7808 11.8647 7.61902C12.3286 8.45723 12.5605 9.40938 12.5605 10.4755H8.98389C8.98389 9.64539 8.80485 9.01469 8.44678 8.58337C8.09684 8.14392 7.58822 7.92419 6.9209 7.92419C6.29427 7.92419 5.80599 8.11137 5.45605 8.48572C5.10612 8.85193 4.93115 9.34835 4.93115 9.97498C4.93115 10.4633 5.12646 10.9068 5.51709 11.3055C5.90771 11.6962 6.59945 12.1031 7.59229 12.5262C9.32568 13.1529 10.583 13.9219 11.3643 14.8334C12.1536 15.7448 12.5483 16.9045 12.5483 18.3124C12.5483 19.8586 12.056 21.0671 11.0713 21.9379C10.0866 22.8086 8.74788 23.244 7.05518 23.244C5.90771 23.244 4.86198 23.008 3.91797 22.536C2.97396 22.064 2.2334 21.3885 1.69629 20.5096C1.16732 19.6307 0.902832 18.5931 0.902832 17.3969H4.50391C4.50391 18.4222 4.70329 19.1669 5.10205 19.6307C5.50081 20.0946 6.15186 20.3265 7.05518 20.3265C8.30843 20.3265 8.93506 19.6633 8.93506 18.3368ZM18.0049 9.79187L18.1025 11.0126C18.8757 10.036 19.897 9.54773 21.1665 9.54773C22.4849 9.54773 23.4167 10.1418 23.9619 11.33C24.7188 10.1418 25.797 9.54773 27.1968 9.54773C29.508 9.54773 30.6921 11.1469 30.749 14.3451V22.9999H27.2944V14.5648C27.2944 13.7998 27.1886 13.2546 26.9771 12.9291C26.7655 12.6036 26.4074 12.4408 25.9028 12.4408C25.2599 12.4408 24.7798 12.8355 24.4624 13.6249L24.4868 14.0399V22.9999H21.0322V14.5892C21.0322 13.8324 20.9305 13.2872 20.7271 12.9535C20.5236 12.6117 20.1615 12.4408 19.6406 12.4408C19.0465 12.4408 18.5745 12.7622 18.2246 13.4052V22.9999H14.77V9.79187H18.0049ZM39.5869 22.9999C39.4893 22.7964 39.3916 22.4546 39.2939 21.9745C38.6755 22.8208 37.8372 23.244 36.7793 23.244C35.6725 23.244 34.7529 22.8778 34.0205 22.1454C33.2962 21.413 32.9341 20.4649 32.9341 19.3011C32.9341 17.9177 33.3735 16.8475 34.2524 16.0907C35.1395 15.3339 36.4131 14.9473 38.0732 14.931H39.123V13.869C39.123 13.2749 39.0213 12.8558 38.8179 12.6117C38.6144 12.3676 38.3174 12.2455 37.9268 12.2455C37.0641 12.2455 36.6328 12.75 36.6328 13.7592H33.1782C33.1782 12.5385 33.634 11.5334 34.5454 10.744C35.465 9.94649 36.6247 9.54773 38.0244 9.54773C39.473 9.54773 40.592 9.92615 41.3813 10.683C42.1789 11.4317 42.5776 12.5059 42.5776 13.9056V20.119C42.5939 21.2583 42.7567 22.1495 43.0659 22.7924V22.9999H39.5869ZM37.5483 20.5341C37.9308 20.5341 38.2563 20.4567 38.5249 20.3021C38.7935 20.1475 38.9928 19.9644 39.123 19.7528V17.0062H38.293C37.707 17.0062 37.2432 17.1934 36.9014 17.5677C36.5677 17.9421 36.4009 18.4426 36.4009 19.0692C36.4009 20.0458 36.7834 20.5341 37.5483 20.5341ZM51.5986 13.1244L50.4512 13.0267C49.5072 13.0267 48.8683 13.4418 48.5347 14.2719V22.9999H45.0679V9.79187H48.3271L48.4248 11.2201C48.9701 10.1052 49.7228 9.54773 50.6831 9.54773C51.0737 9.54773 51.3911 9.60063 51.6353 9.70642L51.5986 13.1244ZM58.0073 6.5448V9.79187H59.7773V12.392H58.0073V18.9471C58.0073 19.468 58.0765 19.826 58.2148 20.0214C58.3613 20.2167 58.638 20.3143 59.0449 20.3143C59.3786 20.3143 59.6512 20.2858 59.8628 20.2289L59.8384 22.9144C59.2524 23.1342 58.6177 23.244 57.9341 23.244C55.7043 23.244 54.5771 21.9663 54.5527 19.411V12.392H53.0269V9.79187H54.5527V6.5448H58.0073ZM67.6143 22.9999V5.22644H72.314C74.3892 5.22644 76.0412 5.88562 77.27 7.20398C78.507 8.52234 79.1377 10.329 79.1621 12.6239V15.5048C79.1621 17.8404 78.5436 19.6755 77.3066 21.0101C76.0778 22.3366 74.381 22.9999 72.2163 22.9999H67.6143ZM71.2031 8.21716V20.0214H72.2773C73.4736 20.0214 74.3159 19.708 74.8042 19.0814C75.2925 18.4467 75.5488 17.3562 75.5732 15.8099V12.7216C75.5732 11.0614 75.3413 9.9058 74.8774 9.25476C74.4136 8.59558 73.6242 8.24972 72.5093 8.21716H71.2031ZM86.9136 23.244C85.1395 23.244 83.756 22.715 82.7632 21.6571C81.7703 20.5992 81.2739 19.0855 81.2739 17.1161V16.0663C81.2739 13.983 81.7297 12.3757 82.6411 11.2445C83.5526 10.1133 84.8587 9.54773 86.5596 9.54773C88.2197 9.54773 89.4689 10.0808 90.3071 11.1469C91.1453 12.2048 91.5726 13.7754 91.5889 15.8588V17.5555H84.7163C84.7651 18.5321 84.9808 19.2483 85.3633 19.704C85.7458 20.1516 86.3358 20.3754 87.1333 20.3754C88.2889 20.3754 89.2533 19.9807 90.0264 19.1913L91.3813 21.2787C90.9582 21.8646 90.3438 22.3407 89.5381 22.7069C88.7324 23.065 87.8576 23.244 86.9136 23.244ZM84.7407 15.1385H88.1953V14.8212C88.179 14.0318 88.0488 13.4336 87.8047 13.0267C87.5605 12.6198 87.1374 12.4164 86.5352 12.4164C85.9329 12.4164 85.4935 12.632 85.2168 13.0634C84.9482 13.4947 84.7896 14.1864 84.7407 15.1385ZM97.7046 18.1171L99.377 9.79187H102.978L99.3525 22.9999H96.0566L92.4189 9.79187H96.0322L97.7046 18.1171ZM108.227 22.9999H104.76V9.79187H108.227V22.9999ZM104.602 6.3739C104.602 5.83679 104.772 5.39734 105.114 5.05554C105.456 4.71375 105.912 4.54285 106.481 4.54285C107.051 4.54285 107.507 4.71375 107.849 5.05554C108.19 5.39734 108.361 5.83679 108.361 6.3739C108.361 6.90287 108.19 7.34233 107.849 7.69226C107.515 8.0422 107.059 8.21716 106.481 8.21716C105.904 8.21716 105.444 8.0422 105.102 7.69226C104.768 7.34233 104.602 6.90287 104.602 6.3739ZM115.673 20.3754C116.674 20.3754 117.183 19.7243 117.199 18.4222H120.446C120.43 19.8627 119.986 21.0264 119.116 21.9135C118.245 22.8005 117.122 23.244 115.747 23.244C114.046 23.244 112.748 22.715 111.853 21.6571C110.957 20.5992 110.502 19.0407 110.485 16.9818V15.932C110.485 13.8568 110.925 12.274 111.804 11.1835C112.691 10.093 113.997 9.54773 115.722 9.54773C117.179 9.54773 118.326 9.99939 119.165 10.9027C120.003 11.7979 120.43 13.0715 120.446 14.7235H117.199C117.191 13.983 117.069 13.4133 116.833 13.0145C116.597 12.6158 116.206 12.4164 115.661 12.4164C115.059 12.4164 114.628 12.632 114.367 13.0634C114.107 13.4865 113.968 14.3125 113.952 15.5414V16.8842C113.952 17.9584 114.005 18.7111 114.111 19.1425C114.217 19.5656 114.392 19.8789 114.636 20.0824C114.88 20.2777 115.226 20.3754 115.673 20.3754ZM127.734 23.244C125.96 23.244 124.576 22.715 123.583 21.6571C122.591 20.5992 122.094 19.0855 122.094 17.1161V16.0663C122.094 13.983 122.55 12.3757 123.461 11.2445C124.373 10.1133 125.679 9.54773 127.38 9.54773C129.04 9.54773 130.289 10.0808 131.127 11.1469C131.966 12.2048 132.393 13.7754 132.409 15.8588V17.5555H125.537C125.585 18.5321 125.801 19.2483 126.184 19.704C126.566 20.1516 127.156 20.3754 127.954 20.3754C129.109 20.3754 130.074 19.9807 130.847 19.1913L132.202 21.2787C131.778 21.8646 131.164 22.3407 130.358 22.7069C129.553 23.065 128.678 23.244 127.734 23.244ZM125.561 15.1385H129.016V14.8212C128.999 14.0318 128.869 13.4336 128.625 13.0267C128.381 12.6198 127.958 12.4164 127.355 12.4164C126.753 12.4164 126.314 12.632 126.037 13.0634C125.769 13.4947 125.61 14.1864 125.561 15.1385Z" fill="white"/>
<path d="M2.94678 38.9608L4.23584 34.66H5.75342L3.23389 41.9608C2.84717 43.0272 2.19092 43.5604 1.26514 43.5604C1.05811 43.5604 0.82959 43.5253 0.57959 43.455V42.3534L0.849121 42.371C1.2085 42.371 1.47803 42.3046 1.65771 42.1718C1.84131 42.0428 1.98584 41.8241 2.09131 41.5155L2.29639 40.9706L0.0698242 34.66H1.60498L2.94678 38.9608ZM10.3413 39.2479L12.2163 34.66H13.9976V40.9999H12.5737V36.8046L10.8276 40.9999H9.86084L8.10889 36.7811V40.9999H6.68506V34.66H8.47803L10.3413 39.2479ZM20.9702 40.9999H19.5464V38.4393H17.0796V40.9999H15.6558V34.66H17.0796V37.3026H19.5464V34.66H20.9702V40.9999ZM24.0229 36.6757H25.4175C25.937 36.6757 26.3901 36.7655 26.7769 36.9452C27.1636 37.1249 27.4565 37.3768 27.6558 37.701C27.8589 38.0253 27.9604 38.4022 27.9604 38.8319C27.9604 39.4843 27.73 40.0077 27.269 40.4022C26.8081 40.7968 26.1948 40.996 25.4292 40.9999H22.5991V34.66H24.0229V36.6757ZM30.439 40.9999H29.0151V34.66H30.439V40.9999ZM24.0229 37.8182V39.8632H25.4116C25.7593 39.8632 26.0327 39.7772 26.2319 39.6053C26.4351 39.4296 26.5366 39.1815 26.5366 38.8612C26.5366 38.5409 26.437 38.2889 26.2378 38.1053C26.0425 37.9178 25.7769 37.8221 25.4409 37.8182H24.0229ZM34.939 41.1171C34.0366 41.1171 33.3042 40.8339 32.7417 40.2675C32.1831 39.6971 31.9038 38.9393 31.9038 37.994V37.8182C31.9038 37.1854 32.0249 36.621 32.2671 36.1249C32.5132 35.6249 32.8569 35.2362 33.2983 34.9589C33.7397 34.6815 34.2319 34.5428 34.7749 34.5428C35.6382 34.5428 36.3042 34.8182 36.7729 35.369C37.2456 35.9198 37.4819 36.6991 37.4819 37.7069V38.2811H33.3394C33.3823 38.8046 33.5562 39.2186 33.8608 39.5233C34.1694 39.828 34.5562 39.9803 35.021 39.9803C35.6733 39.9803 36.2046 39.7167 36.6147 39.1893L37.3823 39.9218C37.1284 40.3007 36.7886 40.5956 36.3628 40.8065C35.9409 41.0135 35.4663 41.1171 34.939 41.1171ZM34.769 35.6854C34.3784 35.6854 34.062 35.8221 33.8198 36.0956C33.5815 36.369 33.4292 36.7499 33.3628 37.2382H36.0757V37.1327C36.0444 36.6561 35.9175 36.2968 35.6948 36.0546C35.4722 35.8085 35.1636 35.6854 34.769 35.6854ZM46.5698 35.7909H44.5132V40.9999H43.0894V35.7909H41.0562V34.66H46.5698V35.7909ZM49.939 41.1171C49.0366 41.1171 48.3042 40.8339 47.7417 40.2675C47.1831 39.6971 46.9038 38.9393 46.9038 37.994V37.8182C46.9038 37.1854 47.0249 36.621 47.2671 36.1249C47.5132 35.6249 47.8569 35.2362 48.2983 34.9589C48.7397 34.6815 49.2319 34.5428 49.7749 34.5428C50.6382 34.5428 51.3042 34.8182 51.7729 35.369C52.2456 35.9198 52.4819 36.6991 52.4819 37.7069V38.2811H48.3394C48.3823 38.8046 48.5562 39.2186 48.8608 39.5233C49.1694 39.828 49.5562 39.9803 50.021 39.9803C50.6733 39.9803 51.2046 39.7167 51.6147 39.1893L52.3823 39.9218C52.1284 40.3007 51.7886 40.5956 51.3628 40.8065C50.9409 41.0135 50.4663 41.1171 49.939 41.1171ZM49.769 35.6854C49.3784 35.6854 49.062 35.8221 48.8198 36.0956C48.5815 36.369 48.4292 36.7499 48.3628 37.2382H51.0757V37.1327C51.0444 36.6561 50.9175 36.2968 50.6948 36.0546C50.4722 35.8085 50.1636 35.6854 49.769 35.6854ZM55.8687 36.746L57.0757 34.66H58.6577L56.7183 37.7831L58.7222 40.9999H57.1519L55.8862 38.8319L54.6265 40.9999H53.0444L55.0483 37.7831L53.1147 34.66H54.6851L55.8687 36.746ZM64.9976 40.9999H63.5737V38.4393H61.1069V40.9999H59.6831V34.66H61.1069V37.3026H63.5737V34.66H64.9976V40.9999ZM66.2515 37.7714C66.2515 37.1503 66.3745 36.5917 66.6206 36.0956C66.8667 35.5956 67.2124 35.2128 67.6577 34.9471C68.103 34.6776 68.6147 34.5428 69.1929 34.5428C70.0483 34.5428 70.7417 34.8182 71.2729 35.369C71.8081 35.9198 72.0972 36.6503 72.1401 37.5604L72.146 37.8944C72.146 38.5194 72.0249 39.078 71.7827 39.5702C71.5444 40.0624 71.2007 40.4432 70.7515 40.7128C70.3062 40.9823 69.7905 41.1171 69.2046 41.1171C68.3101 41.1171 67.5933 40.8202 67.0542 40.2264C66.519 39.6288 66.2515 38.8339 66.2515 37.8417V37.7714ZM67.6753 37.8944C67.6753 38.5468 67.8101 39.0585 68.0796 39.4296C68.3491 39.7968 68.7241 39.9803 69.2046 39.9803C69.6851 39.9803 70.0581 39.7928 70.3237 39.4178C70.5933 39.0428 70.728 38.494 70.728 37.7714C70.728 37.1307 70.5894 36.6229 70.312 36.2479C70.0386 35.8729 69.6655 35.6854 69.1929 35.6854C68.728 35.6854 68.3589 35.871 68.0854 36.2421C67.812 36.6093 67.6753 37.16 67.6753 37.8944ZM78.644 34.66V40.9999H77.2202V35.8085H75.4272L75.3101 38.0175C75.2358 39.08 75.0308 39.8436 74.6948 40.3085C74.3628 40.7694 73.853 40.9999 73.1655 40.9999H72.7261L72.7202 39.8163L73.0132 39.787C73.3257 39.744 73.5522 39.5546 73.6929 39.2186C73.8374 38.8788 73.9292 38.2616 73.9683 37.3671L74.0854 34.66H78.644ZM79.8921 37.7714C79.8921 37.1503 80.0151 36.5917 80.2612 36.0956C80.5073 35.5956 80.853 35.2128 81.2983 34.9471C81.7437 34.6776 82.2554 34.5428 82.8335 34.5428C83.689 34.5428 84.3823 34.8182 84.9136 35.369C85.4487 35.9198 85.7378 36.6503 85.7808 37.5604L85.7866 37.8944C85.7866 38.5194 85.6655 39.078 85.4233 39.5702C85.1851 40.0624 84.8413 40.4432 84.3921 40.7128C83.9468 40.9823 83.4312 41.1171 82.8452 41.1171C81.9507 41.1171 81.2339 40.8202 80.6948 40.2264C80.1597 39.6288 79.8921 38.8339 79.8921 37.8417V37.7714ZM81.3159 37.8944C81.3159 38.5468 81.4507 39.0585 81.7202 39.4296C81.9897 39.7968 82.3647 39.9803 82.8452 39.9803C83.3257 39.9803 83.6987 39.7928 83.9644 39.4178C84.2339 39.0428 84.3687 38.494 84.3687 37.7714C84.3687 37.1307 84.23 36.6229 83.9526 36.2479C83.6792 35.8729 83.3062 35.6854 82.8335 35.6854C82.3687 35.6854 81.9995 35.871 81.7261 36.2421C81.4526 36.6093 81.3159 37.16 81.3159 37.8944ZM91.2124 35.8085H88.4585V40.9999H87.0405V34.66H91.2124V35.8085ZM95.9761 34.66H97.394V40.9999H95.9761V36.7694L93.4917 40.9999H92.0737V34.66H93.4917V38.8905L95.9761 34.66ZM102.867 34.66H104.285V40.9999H102.867V36.7694L100.382 40.9999H98.9644V34.66H100.382V38.8905L102.867 34.66Z" fill="#788891"/>
</svg>
